<?xml version="1.0" encoding="utf-8"?>
<!-- Generator: Adobe Illustrator 16.2.0, SVG Export Plug-In . SVG Version: 6.00 Build 0)  -->
<svg version="1.2" baseProfile="tiny" id="Layer_1" xmlns="http://www.w3.org/2000/svg" xmlns:xlink="http://www.w3.org/1999/xlink"
	 x="0px" y="0px" width="612px" height="614.285px" viewBox="0 90 612 614.285" xml:space="preserve">
<title>Savills Logo</title>
<g>
	<polygon fill="#FEDE07" points="0,90 614.291,90 614.291,704.285 0,704.285 	"/>
	<path fill="#C80C0F" d="M89.54,577.12c-31.416,0-52.719-16.096-52.719-45.979v-1.151h17.241v0.767
		c0,19.544,14.177,31.035,35.632,31.035c11.493,0,33.335-4.981,33.335-23.373c0-35.635-81.994-10.343-81.994-61.303
		c0-25.672,23.908-37.163,47.664-37.163c27.968,0,46.971,16.091,46.971,42.145v1.153h-17.239v-1.153
		c0-16.856-11.874-26.813-31.035-26.813c-13.41,0-29.12,5.742-29.12,21.065c0,33.335,81.991,9.964,81.991,61.304
		C140.268,564.853,114.831,577.12,89.54,577.12L89.54,577.12z"/>
	<path fill="#C80C0F" d="M241.417,573.281c-1.919-6.896-1.919-20.682-1.919-20.682c-6.51,14.178-21.453,24.521-44.821,24.521
		c-26.82,0-42.914-14.563-42.914-38.315c0-34.487,31.032-37.931,61.302-41.378l6.515-0.767c12.26-1.534,18.77-3.072,18.77-16.479
		c0-17.243-9.962-24.899-31.41-24.899c-18.01,0-32.571,7.656-32.571,27.2v1.147h-17.246v-1.147c0-30.269,24.139-42.53,51.729-42.53
		c29.887,0,47.052,11.877,47.052,39.85V550.3c0,6.129,1.087,19.158,2.615,22.981H241.417L241.417,573.281z M238.35,505.855
		c-2.676,2.295-9.19,3.446-12.638,3.827l-12.262,1.533c-22.987,2.683-44.44,7.282-44.44,27.201
		c0,16.479,14.172,23.373,26.815,23.373c13.027,0,24.525-4.596,32.563-12.645c6.515-6.896,9.962-16.086,9.962-26.054
		C238.35,523.094,238.35,509.684,238.35,505.855L238.35,505.855z"/>
	<polygon fill="#C80C0F" points="325.326,573.281 306.553,573.281 260.575,443.786 280.561,443.786 316.131,553.521 
		351.324,443.786 369.77,443.786 	"/>
	<path fill="#C80C0F" d="M399.084,409.693c0-6.838-5.631-12.068-12.07-12.068c-6.438,0-12.067,5.23-12.067,11.668
		c0,6.84,5.631,12.07,12.067,12.07c6.439,0,12.07-5.23,12.07-12.07V409.693L399.084,409.693z"/>
	<polygon fill="#C80C0F" points="378.199,443.786 396.209,443.786 396.209,573.281 378.199,573.281 	"/>
	<polygon fill="#C80C0F" points="413.834,394.741 431.84,394.741 431.84,573.281 413.834,573.281 	"/>
	<polygon fill="#C80C0F" points="449.094,394.741 467.1,394.741 467.1,573.281 449.094,573.281 	"/>
	<path fill="#C80C0F" d="M530.154,577.12c-31.804,0-53.104-16.096-53.104-45.979v-1.151h17.244v0.767
		c0,19.544,14.559,31.035,35.631,31.035c11.494,0,33.715-4.981,33.715-23.373c0-35.635-82.375-10.343-82.375-61.303
		c0-25.672,23.91-37.163,47.658-37.163c28.354,0,47.359,16.091,47.359,42.145v1.153h-17.238v-1.153
		c0-16.856-11.877-26.813-31.035-26.813c-13.795,0-29.5,5.742-29.5,21.065c0,33.335,82.369,9.964,82.369,61.304
		C580.879,564.853,555.445,577.12,530.154,577.12L530.154,577.12z"/>
	<g>
		<polygon points="120.113,640.456 183.705,640.456 183.705,647.979 120.113,647.979 120.113,640.456 		"/>
	</g>
	<g>
		<path d="M234.323,630.154c1.298,6.093,5.705,13.727,10.761,19.536c4.995,5.763,11.563,10.102,18.37,14.342l-5.31,6.153
			c-6.309-4.244-15.102-11.523-18.888-16.249c-4.42-5.509-8.331-15.096-8.331-15.096c-5.189,12.646-15.234,23.276-28.624,31.553
			l-4.74-6.361c5.672-2.874,11.934-7.217,17.15-13.486c4.679-5.621,9.391-11.75,11.665-20.326h-27.304v-7.119h27.87
			c0.579-3.146,0.414-7.521,0.414-13.209c0-0.884,0-1.638,0-2.249h7.052c-0.083,7.6,0.217,12.729-0.131,15.458h27.672v7.063
			L234.323,630.154L234.323,630.154L234.323,630.154L234.323,630.154z"/>
		<path d="M233.777,668.201c-3.57-4.794-7.26-8.813-10.216-11.318l5.376-4.058c3.102,2.628,7.861,6.997,10.818,10.771
			L233.777,668.201L233.777,668.201L233.777,668.201L233.777,668.201z"/>
	</g>
	<g>
		<polygon points="340.68,608.944 340.68,615.099 313.086,615.099 313.086,640.624 342.195,640.624 342.195,646.856 313.02,646.856 
			313.02,669.09 305.914,669.09 305.914,646.923 276.014,646.923 276.014,640.624 305.833,640.624 305.833,615.099 278.096,615.099 
			278.096,608.944 340.68,608.944 340.68,608.944 		"/>
		<path d="M324.955,619.168l-5.451,3.937c4.068,5.818,8.146,10.396,12.24,13.718l5.539-4.437
			C332.703,628.547,328.648,624.188,324.955,619.168C324.955,619.168,328.648,624.188,324.955,619.168L324.955,619.168
			L324.955,619.168z"/>
		<path d="M299.318,624.147c-2.873,3.192-6.855,7.099-11.977,11.74l-5.263-4.912c5.997-4.952,10.168-8.77,12.473-11.582
			L299.318,624.147L299.318,624.147L299.318,624.147L299.318,624.147z"/>
	</g>
	<g>
		<path d="M571.016,670.328h-6.543v-35.314h-7.455c0,0.413,0,0.968,0,1.713c0,14.435-2.813,25.523-8.481,33.33l-5.254-4.858
			c2.146-2.739,3.887-6.159,5.178-10.266c1.223-4.111,1.797-11.23,1.865-21.492v-20.864c9.271-0.424,17.321-1.725,24.215-3.907
			l2.869,5.604c-5.75,1.854-12.566,3.021-20.465,3.634v11.568h20.975v5.604h-6.969L571.016,670.328L571.016,670.328L571.016,670.328
			L571.016,670.328z"/>
		<path d="M527.828,656.705c-3.088,5.337-6.609,9.727-10.627,13.275l-5.322-4.115c4.098-3.145,7.543-7.043,10.422-11.685
			L527.828,656.705L527.828,656.705L527.828,656.705L527.828,656.705z"/>
		<path d="M538.686,666.216c-1.723-3.147-4.174-6.424-7.401-9.927l5.096-2.445c2.59,2.315,5.104,5.194,7.551,8.614L538.686,666.216
			L538.686,666.216L538.686,666.216L538.686,666.216z"/>
		<path d="M517.34,619.552h-4.172v-5.207h4.172v-6.637h6.254v6.637h13.574v-6.637h6.254v6.637h4.387v5.207h-4.387v27.515h4.313v5.26
			H511.88v-5.26h5.461L517.34,619.552L517.34,619.552L517.34,619.552L517.34,619.552z M523.525,647.065h13.643v-6.3h-13.643V647.065
			L523.525,647.065L523.525,647.065L523.525,647.065z M523.594,635.841h13.574v-5.896h-13.574V635.841L523.594,635.841
			L523.594,635.841L523.594,635.841z M523.594,625.021h13.574v-5.469h-13.574V625.021L523.594,625.021L523.594,625.021
			L523.594,625.021z"/>
	</g>
	<g>
		<path d="M379.289,619.925h19.549V607.61h6.248v12.314h15.742v4.934h-15.674c0.289,9.789,1.205,19.377,2.211,25.063
			c2.276-5.461,3.588-12.796,4.473-18.906l5.32,1.987c-2.439,10.94-5.041,18.747-7.898,23.472c0,0.274,0.355,1.439,1.224,3.494
			c0.778,1.985,1.506,2.938,2.146,3.003c1.016,0,2.09-3.219,3.379-9.706l4.744,4.726c-2.088,8.267-4.895,12.372-8.406,12.438
			c-3.022,0-5.396-2.521-7.19-7.655c-1.855,2.602-3.947,4.851-6.396,6.779l-3.52-5.423c2.807-1.771,5.241-4.301,7.477-7.655
			c-1.863-7.248-3.09-17.927-3.813-31.616h-44.324v-4.933h18.32v-3.663h-15.525v-4.613h15.525v-4.038h6.317v4.038h14.951v4.613
			h-14.951L379.289,619.925L379.289,619.925L379.289,619.925L379.289,619.925z"/>
		<path d="M392.074,670.166c-2.438-1.508-7.437-3.626-13.859-5.273l3.09-4.171c5.601,1.355,10.197,2.729,13.869,4.234
			L392.074,670.166L392.074,670.166L392.074,670.166L392.074,670.166z"/>
		<path d="M373.396,664.816c-3.591,1.92-8.691,3.568-15.375,5.009l-3.025-5.404c6.904-0.828,12.004-2.118,15.449-3.907
			L373.396,664.816L373.396,664.816L373.396,664.816L373.396,664.816z"/>
		<path d="M387.773,644.706v3.153h8.475v4.104h-8.475v3.623h10.561v4.521h-43.045v-4.521h10.348v-3.623h-8.905v-4.104h8.905v-3.153
			h-7.258v-16.903h36.644v16.903H387.773L387.773,644.706L387.773,644.706L387.773,644.706z M381.729,655.588v-3.623h-10.057v3.623
			H381.729L381.729,655.588L381.729,655.588L381.729,655.588z M371.672,644.706v3.153h10.057v-3.153H371.672L371.672,644.706
			L371.672,644.706L371.672,644.706z M389.355,641.005v-3.288h-10.003v3.288H389.355L389.355,641.005L389.355,641.005
			L389.355,641.005z M373.828,641.005v-3.288h-9.851v3.288H373.828L373.828,641.005L373.828,641.005L373.828,641.005z
			 M389.355,634.442v-2.956h-10.003v2.956H389.355L389.355,634.442L389.355,634.442L389.355,634.442z M373.828,634.442v-2.956
			h-9.851v2.956H373.828L373.828,634.442L373.828,634.442L373.828,634.442z"/>
		<path d="M413.703,619.511c-1.498-2.73-3.514-5.395-6.039-8.078l4.604-2.93c2.019,1.901,4.099,4.436,6.396,7.654L413.703,619.511
			L413.703,619.511L413.703,619.511L413.703,619.511z"/>
	</g>
	<g>
		<path d="M499.391,661.303v5.537H471.08v3.626h-6.103v-37.71c-1.299,1.922-2.381,3.428-3.313,4.662l-3.588-5.959
			c3.031-3.486,5.526-7.187,7.485-11.074c2.054-4.04,3.521-8.287,4.443-12.737l6.103,0.817c-0.923,4.039-2.082,7.73-3.521,11.092
			h25.883v5.396h-11.363v7.804h10.562v5.34h-10.562v8.351h10.562v5.34h-10.562v9.518h12.285V661.303L499.391,661.303
			L499.391,661.303z M481.145,661.303v-9.518H471.08v9.518H481.145L481.145,661.303L481.145,661.303L481.145,661.303z
			 M481.145,646.445v-8.351H471.08v8.351H481.145L481.145,646.445L481.145,646.445L481.145,646.445z M481.145,632.756v-7.804H471.08
			v7.804H481.145L481.145,632.756L481.145,632.756L481.145,632.756z"/>
		<path d="M445.996,668.686c-0.066-6.563-0.357-11.768-0.998-15.667l5.377-0.556c1.082,4.869,1.725,9.924,1.951,15.329
			L445.996,668.686L445.996,668.686L445.996,668.686L445.996,668.686z"/>
		<path d="M457.199,666.502c-1.063-5.755-2.283-10.543-3.803-14.377l4.963-1.025c1.58,3.352,3.088,7.943,4.604,13.752
			L457.199,666.502L457.199,666.502L457.199,666.502L457.199,666.502z"/>
		<path d="M442.908,653.019c-0.576,6.911-1.722,12.448-3.51,16.763l-6.188-1.369c2.158-5.204,3.521-10.467,4.172-15.872
			L442.908,653.019L442.908,653.019L442.908,653.019L442.908,653.019z"/>
		<path d="M460.59,620.103c-2.09,4.623-4.283,8.768-6.588,12.445c-2.854,4.55-5.865,8.363-9.07,11.499
			c3.365-0.198,6.744-0.479,10.199-0.896c-0.865-2.044-1.582-3.755-2.231-5.129l4.95-1.225c1.81,2.945,3.599,6.908,5.472,11.897
			l-5.961,1.518c-0.433-1.518-0.66-2.26-0.8-2.328c-5.895,0.754-13.002,1.436-21.336,2.188l-1.438-5.74c0,0,3.598,0,4.303-0.069
			c3.672-3.841,6.91-8.078,9.781-12.729c-2.012,0.198-10.558,0.82-12.646,1.092l-1.155-5.74h3.672
			c1.899-2.908,3.643-6.083,5.242-9.481c1.414-3.015,2.692-6.215,3.879-9.632l6.469,1.789c-2.729,6.853-5.818,12.531-9.273,17.181
			c1.084,0,5.752-0.346,6.609-0.403c1.592-2.542,2.883-5.271,3.955-8.211L460.59,620.103L460.59,620.103L460.59,620.103
			L460.59,620.103z"/>
		<path d="M483.723,619.479c-1.477-4.669-3.594-8.416-4.733-10.121l5.311-1.787c1.951,2.4,3.672,5.761,5.32,10.14L483.723,619.479
			L483.723,619.479L483.723,619.479L483.723,619.479z"/>
	</g>
	<g>
		<path d="M101.306,625.3v16.157H76.797v5.329h26.664c-0.141,9.857-0.932,15.601-2.522,17.391
			c-1.432,1.639-5.461,2.455-12.212,2.523c-1.436,0-2.66,0-3.813-0.068l-1.789-6.365c2.726,0.211,5.169,0.284,7.476,0.352
			c2.362,0,3.944-0.141,4.811-0.557c0.791-0.338,1.29-2.871,1.582-7.73H76.797v18.136h-6.826v-17.381
			c-6.619,7.466-15.31,12.785-26.165,16.007l-3.224-6.02c9.702-2.107,17.244-5.674,22.63-10.742H43.533l2.434-16.345h24.004v-5.28
			H44.173v-5.472L101.306,625.3L101.306,625.3L101.306,625.3L101.306,625.3z M51.579,641.457l-0.72,5.329h19.112v-5.329H51.579
			L51.579,641.457L51.579,641.457L51.579,641.457z M76.797,630.778v5.266h17.965v-5.266H76.797L76.797,630.778L76.797,630.778
			L76.797,630.778z"/>
		<path d="M58.768,623.662c-0.292-1.036-0.584-2.063-0.867-3.222c-0.292-1.025-0.578-1.854-0.861-2.467h-5.108
			c-1.507,1.986-3.592,4.116-6.319,6.375l-5.394-4.247c4.741-3.212,8.341-7.391,10.78-12.53l6.752,0.827
			c-0.5,1.233-1.225,2.6-2.223,4.104h17.39v5.471h-9.414c0.645,1.366,1.223,2.938,1.728,4.727L58.768,623.662L58.768,623.662
			L58.768,623.662L58.768,623.662z"/>
		<path d="M94.686,617.975c0.792,1.507,1.366,3.091,1.724,4.727l-6.534,1.094c-0.565-2.6-1.149-4.509-1.79-5.819h-6.553
			c-2,2.666-3.869,4.727-5.668,6.16l-5.536-3.966c4.962-3.69,8.257-7.871,10.063-12.598l6.747,0.61
			c-0.57,1.45-1.29,2.883-2.155,4.321h21.419v5.471H94.686L94.686,617.975L94.686,617.975L94.686,617.975z"/>
	</g>
</g>
</svg>
